# xmcd
#
# Track frame offsets: 
#        150
#        13045
#        24412
#        37300
#        49723
#        60615
#        71560
#        83231
#        95594
#        104938
#        114179
#        123344
#        134227
#        147197
#        159731
#        172432
#        184164
#        193137
#        202617
#        211702
#
# Disc length: 2972 seconds
#
# Revision: 0
# Processed by: cddbd v1.5.2PL0 Copyright (c) Steve Scherf et al.
# Submitted via: ExactAudioCopy v1.1
#
DISCID=2e0b9a14
DTITLE=Porter Wagoner - The Essential Recordings_CD1
DYEAR=2017
DGENRE=Country
TTITLE0=A Satisfied Mind
TTITLE1=Settin' The Woods On Fire
TTITLE2=My Bonfire
TTITLE3=Company's Comin'
TTITLE4=Eat, Drink, And Be Merry (Tomorrow You'll Cry)
TTITLE5=I'm Steppin' Out Tonight
TTITLE6=Living In The Past
TTITLE7=What Would You Do (If Jesus Came To Your House)?
TTITLE8=Tryin' To Forget The Blues
TTITLE9=Uncle Pen
TTITLE10=I Like Girls
TTITLE11=I've Known You From Somewhere
TTITLE12=Midnight
TTITLE13=I Guess I'm Crazy (For Loving You)
TTITLE14=Born To Lose
TTITLE15=Ivory Tower
TTITLE16=Payday
TTITLE17=Tell Her Lies And Feed Her Candy
TTITLE18=Me And Fred And Joe And Bill
TTITLE19=Haven't You Heard?
EXTD=
EXTT0=
EXTT1=
EXTT2=
EXTT3=
EXTT4=
EXTT5=
EXTT6=
EXTT7=
EXTT8=
EXTT9=
EXTT10=
EXTT11=
EXTT12=
EXTT13=
EXTT14=
EXTT15=
EXTT16=
EXTT17=
EXTT18=
EXTT19=
PLAYORDER=
